<svg width="24" height="24" viewBox="0 0 24 24" fill="none" xmlns="http://www.w3.org/2000/svg">
<path fill-rule="evenodd" clip-rule="evenodd" d="M7.6 4C8.49376 3.99994 9.36634 4.28267 10.1016 4.81056C10.8369 5.33844 11.4 6.08646 11.716 6.95505C12.0321 7.82365 12.086 8.77163 11.8707 9.67286C11.6553 10.5741 11.1809 11.3858 10.5106 12C11.1809 12.6142 11.6553 13.4259 11.8707 14.3271C12.086 15.2284 12.0321 16.1764 11.716 17.0449C11.4 17.9135 10.8369 18.6616 10.1016 19.1894C9.36634 19.7173 8.49376 20.0001 7.6 20H3.2C2.61652 20 2.05695 19.7592 1.64436 19.3305C1.23178 18.9019 1 18.3205 1 17.7143V6.28571C1 5.67951 1.23178 5.09812 1.64436 4.66947C2.05695 4.24082 2.61652 4 3.2 4H7.6ZM18.05 8.57143C20.9177 8.57143 23 11.2777 23 14.2857C23 14.5656 22.901 14.8358 22.722 15.045C22.543 15.2542 22.2963 15.3878 22.0287 15.4206L21.9 15.4286H15.454C15.8478 16.8274 16.9423 17.7143 18.05 17.7143C19.238 17.7143 19.9112 17.1303 20.514 16.4C20.7036 16.1696 20.9736 16.027 21.2644 16.0034C21.5553 15.9798 21.8433 16.0773 22.065 16.2743C22.2867 16.4713 22.424 16.7518 22.4467 17.054C22.4694 17.3562 22.3756 17.6554 22.186 17.8857L22.0683 18.0251L21.8164 18.3063C21.0222 19.1543 19.8606 20 18.05 20C15.1823 20 13.1 17.2937 13.1 14.2857C13.1 11.2777 15.1823 8.57143 18.05 8.57143ZM7.6 13.1429H3.2V17.7143H7.6C8.17088 17.7169 8.7204 17.4889 9.13247 17.0784C9.54453 16.6679 9.78688 16.1071 9.8083 15.5144C9.82972 14.9216 9.62854 14.3435 9.24726 13.902C8.86598 13.4606 8.33447 13.1904 7.765 13.1486L7.6 13.1429ZM18.05 10.8571C16.9423 10.8571 15.8478 11.744 15.454 13.1429H20.646C20.2522 11.744 19.1577 10.8571 18.05 10.8571ZM7.6 6.28571H3.2V10.8571H7.6C8.18348 10.8571 8.74305 10.6163 9.15563 10.1877C9.56821 9.75902 9.8 9.17764 9.8 8.57143C9.8 7.96522 9.56821 7.38384 9.15563 6.95518C8.74305 6.52653 8.18348 6.28571 7.6 6.28571ZM19.7 5.14286C19.9917 5.14286 20.2715 5.26327 20.4778 5.47759C20.6841 5.69192 20.8 5.98261 20.8 6.28571C20.8 6.58882 20.6841 6.87951 20.4778 7.09384C20.2715 7.30816 19.9917 7.42857 19.7 7.42857H16.4C16.1083 7.42857 15.8285 7.30816 15.6222 7.09384C15.4159 6.87951 15.3 6.58882 15.3 6.28571C15.3 5.98261 15.4159 5.69192 15.6222 5.47759C15.8285 5.26327 16.1083 5.14286 16.4 5.14286H19.7Z" fill="black"/>
</svg>
