<svg width="25" height="25" viewBox="0 0 25 25" fill="none" xmlns="http://www.w3.org/2000/svg">
<path d="M16.4414 8.94189C18.0327 8.94189 19.5588 9.57404 20.684 10.6993C21.8093 11.8245 22.4414 13.3506 22.4414 14.9419V21.9419H18.4414V14.9419C18.4414 14.4115 18.2307 13.9028 17.8556 13.5277C17.4805 13.1526 16.9718 12.9419 16.4414 12.9419C15.911 12.9419 15.4023 13.1526 15.0272 13.5277C14.6521 13.9028 14.4414 14.4115 14.4414 14.9419V21.9419H10.4414V14.9419C10.4414 13.3506 11.0735 11.8245 12.1988 10.6993C13.324 9.57404 14.8501 8.94189 16.4414 8.94189Z" stroke="black" stroke-width="2" stroke-linecap="round" stroke-linejoin="round"/>
<path d="M6.44141 9.94189H2.44141V21.9419H6.44141V9.94189Z" stroke="black" stroke-width="2" stroke-linecap="round" stroke-linejoin="round"/>
<path d="M4.44141 6.94189C5.54598 6.94189 6.44141 6.04646 6.44141 4.94189C6.44141 3.83732 5.54598 2.94189 4.44141 2.94189C3.33684 2.94189 2.44141 3.83732 2.44141 4.94189C2.44141 6.04646 3.33684 6.94189 4.44141 6.94189Z" stroke="black" stroke-width="2" stroke-linecap="round" stroke-linejoin="round"/>
</svg>
